<?xml version="1.0" encoding="UTF-8" standalone="no"?>
<svg
   xmlns:dc="http://purl.org/dc/elements/1.1/"
   xmlns:cc="http://creativecommons.org/ns#"
   xmlns:rdf="http://www.w3.org/1999/02/22-rdf-syntax-ns#"
   xmlns:svg="http://www.w3.org/2000/svg"
   xmlns="http://www.w3.org/2000/svg"
   height="160"
   width="420"
   xml:space="preserve"
   viewBox="0 0 420 160"
   y="0px"
   x="0px"
   id="layer"
   version="1.1"><metadata
   id="metadata31"><rdf:RDF><cc:Work
       rdf:about=""><dc:format>image/svg+xml</dc:format><dc:type
         rdf:resource="http://purl.org/dc/dcmitype/StillImage" /><dc:title></dc:title></cc:Work></rdf:RDF></metadata><defs
   id="defs29"><rect
     x="157.09465"
     y="76.239525"
     width="317.81854"
     height="37.162804"
     id="rect885" /><rect
     id="rect862"
     height="111.91045"
     width="402.27271"
     y="263.14078"
     x="208.69786" /></defs>
<style
   id="style2"
   type="text/css">
    .st0{fill:#AE295E;}
</style>






<text
   style="color:#000000;font-style:normal;font-variant:normal;font-weight:normal;font-stretch:normal;font-size:16px;line-height:125%;font-family:'Kunstler Script';-inkscape-font-specification:'Kunstler Script';letter-spacing:0px;word-spacing:0px;white-space:pre;shape-inside:url(#rect862);clip-rule:nonzero;display:inline;overflow:visible;visibility:visible;opacity:1;isolation:auto;mix-blend-mode:normal;color-interpolation:sRGB;color-interpolation-filters:linearRGB;solid-color:#000000;solid-opacity:1;fill:#0000ff;fill-opacity:1;fill-rule:nonzero;stroke:#000000;stroke-width:1;stroke-linecap:butt;stroke-linejoin:miter;stroke-miterlimit:4;stroke-dasharray:none;stroke-dashoffset:0;stroke-opacity:1;color-rendering:auto;image-rendering:auto;shape-rendering:auto;text-rendering:auto;enable-background:accumulate;"
   id="text860"
   xml:space="preserve" /><path
   style="opacity:0.719355;fill:#ffff07;fill-opacity:1;stroke:#040000;stroke-width:4;stroke-linejoin:round;stroke-miterlimit:4;stroke-dasharray:none;stroke-opacity:1;paint-order:stroke fill markers"
   id="path871"
   d="M 89.890262,95.482138 88.177679,155.70146 77.966011,96.329569 34.173538,137.70008 68.935068,88.497074 8.7157414,86.784491 68.087637,76.572822 26.717122,32.780349 75.920132,67.541879 77.632715,7.3225529 87.844384,66.694449 131.63686,25.323933 96.875327,74.526944 157.09465,76.239526 97.722757,86.451195 139.09327,130.24367 Z" /><text
   xml:space="preserve"
   id="text883"
   style="color:#000000;font-style:normal;font-variant:normal;font-weight:normal;font-stretch:normal;font-size:16px;line-height:125%;font-family:'Kunstler Script';-inkscape-font-specification:'Kunstler Script';letter-spacing:0px;word-spacing:0px;white-space:pre;shape-inside:url(#rect885);clip-rule:nonzero;display:inline;overflow:visible;visibility:visible;opacity:1;isolation:auto;mix-blend-mode:normal;color-interpolation:sRGB;color-interpolation-filters:linearRGB;solid-color:#000000;solid-opacity:1;fill:#0000ff;fill-opacity:1;fill-rule:nonzero;stroke:#000000;stroke-width:1;stroke-linecap:butt;stroke-linejoin:miter;stroke-miterlimit:4;stroke-dasharray:none;stroke-dashoffset:0;stroke-opacity:1;color-rendering:auto;image-rendering:auto;shape-rendering:auto;text-rendering:auto;enable-background:accumulate;" /><text
   xml:space="preserve"
   style="color:#000000;font-style:normal;font-variant:normal;font-weight:normal;font-stretch:normal;font-size:16px;line-height:125%;font-family:sans-serif;-inkscape-font-specification:sans-serif;letter-spacing:0px;word-spacing:0px;clip-rule:nonzero;display:inline;overflow:visible;visibility:visible;opacity:1;isolation:auto;mix-blend-mode:normal;color-interpolation:sRGB;color-interpolation-filters:linearRGB;solid-color:#000000;solid-opacity:1;fill:#0000ff;fill-opacity:1;fill-rule:nonzero;stroke:#000000;stroke-width:1;stroke-linecap:butt;stroke-linejoin:miter;stroke-miterlimit:4;stroke-dasharray:none;stroke-dashoffset:0;stroke-opacity:1;color-rendering:auto;image-rendering:auto;shape-rendering:auto;text-rendering:auto;enable-background:accumulate"
   x="1220.1012"
   y="-100.33727"
   id="text891"><tspan
     id="tspan889"
     x="1220.1012"
     y="-100.33727">+</tspan></text><text
   xml:space="preserve"
   style="color:#000000;font-style:normal;font-variant:normal;font-weight:normal;font-stretch:normal;font-size:16px;line-height:125%;font-family:'Kunstler Script';-inkscape-font-specification:'Kunstler Script';letter-spacing:0px;word-spacing:0px;clip-rule:nonzero;display:inline;overflow:visible;visibility:visible;opacity:1;isolation:auto;mix-blend-mode:normal;color-interpolation:sRGB;color-interpolation-filters:linearRGB;solid-color:#000000;solid-opacity:1;fill:#0000ff;fill-opacity:1;fill-rule:nonzero;stroke:#000000;stroke-width:1;stroke-linecap:butt;stroke-linejoin:miter;stroke-miterlimit:4;stroke-dasharray:none;stroke-dashoffset:0;stroke-opacity:1;color-rendering:auto;image-rendering:auto;shape-rendering:auto;text-rendering:auto;enable-background:accumulate"
   x="1147.8584"
   y="132.44521"
   id="text895"><tspan
     id="tspan893"
     x="1147.8584"
     y="132.44521">+</tspan></text><g
   style="color:#000000;font-style:normal;font-variant:normal;font-weight:normal;font-stretch:normal;font-size:48px;line-height:0;font-family:sans-serif;-inkscape-font-specification:sans-serif;letter-spacing:0px;word-spacing:0px;clip-rule:nonzero;display:inline;overflow:visible;visibility:visible;opacity:1;isolation:auto;mix-blend-mode:normal;color-interpolation:sRGB;color-interpolation-filters:linearRGB;solid-color:#000000;solid-opacity:1;fill:#0000ff;fill-opacity:1;fill-rule:nonzero;stroke:#000000;stroke-width:1.1;stroke-linecap:butt;stroke-linejoin:miter;stroke-miterlimit:4;stroke-dasharray:none;stroke-dashoffset:0;stroke-opacity:1;color-rendering:auto;image-rendering:auto;shape-rendering:auto;text-rendering:auto;enable-background:accumulate"
   id="text849"
   aria-label="Swedbank
Open Banking 
Sandbox"><path
     id="path872"
     style="font-size:32px;line-height:140%;stroke:#000000;stroke-width:1.1;stroke-miterlimit:4;stroke-dasharray:none;stroke-opacity:1"
     d="m 205.67644,41.668083 q 0,1.359375 -0.64063,2.6875 -0.625,1.328125 -1.76562,2.25 -1.25,1 -2.92188,1.5625 -1.65625,0.5625 -4,0.5625 -2.51562,0 -4.53125,-0.46875 -2,-0.46875 -4.07812,-1.390625 v -3.875 h 0.21875 q 1.76562,1.46875 4.07812,2.265625 2.3125,0.796875 4.34375,0.796875 2.875,0 4.46875,-1.078125 1.60938,-1.078125 1.60938,-2.875 0,-1.546875 -0.76563,-2.28125 -0.75,-0.734375 -2.29687,-1.140625 -1.17188,-0.3125 -2.54688,-0.515625 -1.35937,-0.203125 -2.89062,-0.515625 -3.09375,-0.65625 -4.59375,-2.234375 -1.48438,-1.59375 -1.48438,-4.140625 0,-2.921875 2.46875,-4.78125 2.46875,-1.875 6.26563,-1.875 2.45312,0 4.5,0.46875 2.04687,0.46875 3.625,1.15625 v 3.65625 h -0.21875 q -1.32813,-1.125 -3.5,-1.859375 -2.15625,-0.75 -4.42188,-0.75 -2.48437,0 -4,1.03125 -1.5,1.03125 -1.5,2.65625 0,1.453125 0.75,2.28125 0.75,0.828125 2.64063,1.265625 1,0.21875 2.84375,0.53125 1.84375,0.3125 3.125,0.640625 2.59375,0.6875 3.90625,2.078125 1.3125,1.390625 1.3125,3.890625 z" /><path
     id="path874"
     style="font-size:32px;line-height:140%;stroke:#000000;stroke-width:1.1;stroke-miterlimit:4;stroke-dasharray:none;stroke-opacity:1"
     d="m 232.05144,30.855583 -4.54688,17.453125 h -2.71875 l -4.48437,-13.453125 -4.45313,13.453125 h -2.70312 l -4.59375,-17.453125 h 3.0625 l 3.20312,13.515625 4.35938,-13.515625 h 2.42187 l 4.46875,13.515625 3.03125,-13.515625 z" /><path
     id="path876"
     style="font-size:32px;line-height:140%;stroke:#000000;stroke-width:1.1;stroke-miterlimit:4;stroke-dasharray:none;stroke-opacity:1"
     d="m 250.89519,39.886833 h -12.85938 q 0,1.609375 0.48438,2.8125 0.48437,1.1875 1.32812,1.953125 0.8125,0.75 1.92188,1.125 1.125,0.375 2.46875,0.375 1.78125,0 3.57812,-0.703125 1.8125,-0.71875 2.57813,-1.40625 h 0.15625 v 3.203125 q -1.48438,0.625 -3.03125,1.046875 -1.54688,0.421875 -3.25,0.421875 -4.34375,0 -6.78125,-2.34375 -2.4375,-2.359375 -2.4375,-6.6875 0,-4.28125 2.32812,-6.796875 2.34375,-2.515625 6.15625,-2.515625 3.53125,0 5.4375,2.0625 1.92188,2.0625 1.92188,5.859375 z m -2.85938,-2.25 q -0.0156,-2.3125 -1.17187,-3.578125 -1.14063,-1.265625 -3.48438,-1.265625 -2.35937,0 -3.76562,1.390625 -1.39063,1.390625 -1.57813,3.453125 z" /><path
     id="path878"
     style="font-size:32px;line-height:140%;stroke:#000000;stroke-width:1.1;stroke-miterlimit:4;stroke-dasharray:none;stroke-opacity:1"
     d="m 269.50456,48.308708 h -2.9375 v -1.828125 q -1.26562,1.09375 -2.64062,1.703125 -1.375,0.609375 -2.98438,0.609375 -3.125,0 -4.96875,-2.40625 -1.82812,-2.40625 -1.82812,-6.671875 0,-2.21875 0.625,-3.953125 0.64062,-1.734375 1.71875,-2.953125 1.0625,-1.1875 2.46875,-1.8125 1.42187,-0.625 2.9375,-0.625 1.375,0 2.4375,0.296875 1.0625,0.28125 2.23437,0.890625 v -7.5625 h 2.9375 z m -2.9375,-4.296875 V 33.996208 q -1.1875,-0.53125 -2.125,-0.734375 -0.9375,-0.203125 -2.04687,-0.203125 -2.46875,0 -3.84375,1.71875 -1.375,1.71875 -1.375,4.875 0,3.109375 1.0625,4.734375 1.0625,1.609375 3.40625,1.609375 1.25,0 2.53125,-0.546875 1.28125,-0.5625 2.39062,-1.4375 z" /><path
     id="path880"
     style="font-size:32px;line-height:140%;stroke:#000000;stroke-width:1.1;stroke-miterlimit:4;stroke-dasharray:none;stroke-opacity:1"
     d="m 290.64519,39.449333 q 0,2.1875 -0.625,3.9375 -0.60938,1.75 -1.65625,2.9375 -1.10938,1.234375 -2.4375,1.859375 -1.32813,0.609375 -2.92188,0.609375 -1.48437,0 -2.59375,-0.359375 -1.10937,-0.34375 -2.1875,-0.9375 l -0.1875,0.8125 h -2.75 v -24.3125 h 2.9375 v 8.6875 q 1.23438,-1.015625 2.625,-1.65625 1.39063,-0.65625 3.125,-0.65625 3.09375,0 4.875,2.375 1.79688,2.375 1.79688,6.703125 z m -3.03125,0.07813 q 0,-3.125 -1.03125,-4.734375 -1.03125,-1.625 -3.32813,-1.625 -1.28125,0 -2.59375,0.5625 -1.3125,0.546875 -2.4375,1.421875 v 10 q 1.25,0.5625 2.14063,0.78125 0.90625,0.21875 2.04687,0.21875 2.4375,0 3.8125,-1.59375 1.39063,-1.609375 1.39063,-5.03125 z" /><path
     id="path882"
     style="font-size:32px;line-height:140%;stroke:#000000;stroke-width:1.1;stroke-miterlimit:4;stroke-dasharray:none;stroke-opacity:1"
     d="m 308.78581,48.308708 h -2.92187 v -1.859375 q -0.39063,0.265625 -1.0625,0.75 -0.65625,0.46875 -1.28125,0.75 -0.73438,0.359375 -1.6875,0.59375 -0.95313,0.25 -2.23438,0.25 -2.35937,0 -4,-1.5625 -1.64062,-1.5625 -1.64062,-3.984375 0,-1.984375 0.84375,-3.203125 0.85937,-1.234375 2.4375,-1.9375 1.59375,-0.703125 3.82812,-0.953125 2.23438,-0.25 4.79688,-0.375 v -0.453125 q 0,-1 -0.35938,-1.65625 -0.34375,-0.65625 -1,-1.03125 -0.625,-0.359375 -1.5,-0.484375 -0.875,-0.125 -1.82812,-0.125 -1.15625,0 -2.57813,0.3125 -1.42187,0.296875 -2.9375,0.875 h -0.15625 v -2.984375 q 0.85938,-0.234375 2.48438,-0.515625 1.625,-0.28125 3.20312,-0.28125 1.84375,0 3.20313,0.3125 1.375,0.296875 2.375,1.03125 0.98437,0.71875 1.5,1.859375 0.51562,1.140625 0.51562,2.828125 z m -2.92187,-4.296875 v -4.859375 q -1.34375,0.07813 -3.17188,0.234375 -1.8125,0.15625 -2.875,0.453125 -1.26562,0.359375 -2.04687,1.125 -0.78125,0.75 -0.78125,2.078125 0,1.5 0.90625,2.265625 0.90625,0.75 2.76562,0.75 1.54688,0 2.82813,-0.59375 1.28125,-0.609375 2.375,-1.453125 z" /><path
     id="path884"
     style="font-size:32px;line-height:140%;stroke:#000000;stroke-width:1.1;stroke-miterlimit:4;stroke-dasharray:none;stroke-opacity:1"
     d="m 329.06706,48.308708 h -2.9375 v -9.9375 q 0,-1.203125 -0.14062,-2.25 -0.14063,-1.0625 -0.51563,-1.65625 -0.39062,-0.65625 -1.125,-0.96875 -0.73437,-0.328125 -1.90625,-0.328125 -1.20312,0 -2.51562,0.59375 -1.3125,0.59375 -2.51563,1.515625 v 13.03125 h -2.9375 V 30.855583 h 2.9375 v 1.9375 q 1.375,-1.140625 2.84375,-1.78125 1.46875,-0.640625 3.01563,-0.640625 2.82812,0 4.3125,1.703125 1.48437,1.703125 1.48437,4.90625 z" /><path
     id="path886"
     style="font-size:32px;line-height:140%;stroke:#000000;stroke-width:1.1;stroke-miterlimit:4;stroke-dasharray:none;stroke-opacity:1"
     d="m 350.56706,48.308708 h -3.875 l -7,-7.640625 -1.90625,1.8125 v 5.828125 h -2.9375 v -24.3125 h 2.9375 v 15.59375 l 8.48438,-8.734375 h 3.70312 l -8.10937,8.0625 z" /><path
     id="path888"
     style="font-size:32px;line-height:140%;stroke:#000000;stroke-width:1.1;stroke-miterlimit:4;stroke-dasharray:none;stroke-opacity:1"
     d="m 206.11394,72.514957 q 1.42187,1.5625 2.17187,3.828125 0.76563,2.265625 0.76563,5.140625 0,2.875 -0.78125,5.15625 -0.76563,2.265625 -2.15625,3.78125 -1.4375,1.578125 -3.40625,2.375 -1.95313,0.796875 -4.46875,0.796875 -2.45313,0 -4.46875,-0.8125 -2,-0.8125 -3.40625,-2.359375 -1.40625,-1.546875 -2.17188,-3.796875 -0.75,-2.25 -0.75,-5.140625 0,-2.84375 0.75,-5.09375 0.75,-2.265625 2.1875,-3.875 1.375,-1.53125 3.40625,-2.34375 2.04688,-0.8125 4.45313,-0.8125 2.5,0 4.48437,0.828125 2,0.8125 3.39063,2.328125 z m -0.28125,8.96875 q 0,-4.53125 -2.03125,-6.984375 -2.03125,-2.46875 -5.54688,-2.46875 -3.54687,0 -5.57812,2.46875 -2.01563,2.453125 -2.01563,6.984375 0,4.578125 2.0625,7.015625 2.0625,2.421875 5.53125,2.421875 3.46875,0 5.51563,-2.421875 2.0625,-2.4375 2.0625,-7.015625 z" /><path
     id="path890"
     style="font-size:32px;line-height:140%;stroke:#000000;stroke-width:1.1;stroke-miterlimit:4;stroke-dasharray:none;stroke-opacity:1"
     d="m 229.08269,84.171207 q 0,2.125 -0.60938,3.890625 -0.60937,1.75 -1.71875,2.96875 -1.03125,1.15625 -2.4375,1.796875 -1.39062,0.625 -2.95312,0.625 -1.35938,0 -2.46875,-0.296875 -1.09375,-0.296875 -2.23438,-0.921875 v 7.3125 h -2.9375 V 75.655582 h 2.9375 v 1.828125 q 1.17188,-0.984375 2.625,-1.640625 1.46875,-0.671875 3.125,-0.671875 3.15625,0 4.90625,2.390625 1.76563,2.375 1.76563,6.609375 z m -3.03125,0.07813 q 0,-3.15625 -1.07813,-4.71875 -1.07812,-1.5625 -3.3125,-1.5625 -1.26562,0 -2.54687,0.546875 -1.28125,0.546875 -2.45313,1.4375 v 9.890625 q 1.25,0.5625 2.14063,0.765625 0.90625,0.203125 2.04687,0.203125 2.45313,0 3.82813,-1.65625 1.375,-1.65625 1.375,-4.90625 z" /><path
     id="path892"
     style="font-size:32px;line-height:140%;stroke:#000000;stroke-width:1.1;stroke-miterlimit:4;stroke-dasharray:none;stroke-opacity:1"
     d="m 248.27019,84.686832 h -12.85938 q 0,1.609375 0.48438,2.8125 0.48437,1.1875 1.32812,1.953125 0.8125,0.75 1.92188,1.125 1.125,0.375 2.46875,0.375 1.78125,0 3.57812,-0.703125 1.8125,-0.71875 2.57813,-1.40625 h 0.15625 v 3.203125 q -1.48438,0.625 -3.03125,1.046875 -1.54688,0.421875 -3.25,0.421875 -4.34375,0 -6.78125,-2.34375 -2.4375,-2.359375 -2.4375,-6.6875 0,-4.28125 2.32812,-6.796875 2.34375,-2.515625 6.15625,-2.515625 3.53125,0 5.4375,2.0625 1.92188,2.0625 1.92188,5.859375 z m -2.85938,-2.25 q -0.0156,-2.3125 -1.17187,-3.578125 -1.14063,-1.265625 -3.48438,-1.265625 -2.35937,0 -3.76562,1.390625 -1.39063,1.390625 -1.57813,3.453125 z" /><path
     id="path894"
     style="font-size:32px;line-height:140%;stroke:#000000;stroke-width:1.1;stroke-miterlimit:4;stroke-dasharray:none;stroke-opacity:1"
     d="m 267.31706,93.108707 h -2.9375 v -9.9375 q 0,-1.203125 -0.14062,-2.25 -0.14063,-1.0625 -0.51563,-1.65625 -0.39062,-0.65625 -1.125,-0.96875 -0.73437,-0.328125 -1.90625,-0.328125 -1.20312,0 -2.51562,0.59375 -1.3125,0.59375 -2.51563,1.515625 v 13.03125 h -2.9375 V 75.655582 h 2.9375 v 1.9375 q 1.375,-1.140625 2.84375,-1.78125 1.46875,-0.640625 3.01563,-0.640625 2.82812,0 4.3125,1.703125 1.48437,1.703125 1.48437,4.90625 z" /><path
     id="path896"
     style="font-size:32px;line-height:140%;stroke:#000000;stroke-width:1.1;stroke-miterlimit:4;stroke-dasharray:none;stroke-opacity:1"
     d="m 302.00456,85.952457 q 0,1.734375 -0.65625,3.0625 -0.65625,1.328125 -1.76562,2.1875 -1.3125,1.03125 -2.89063,1.46875 -1.5625,0.4375 -3.98437,0.4375 h -8.25 V 69.843082 h 6.89062 q 2.54688,0 3.8125,0.1875 1.26563,0.1875 2.42188,0.78125 1.28125,0.671875 1.85937,1.734375 0.57813,1.046875 0.57813,2.515625 0,1.65625 -0.84375,2.828125 -0.84375,1.15625 -2.25,1.859375 v 0.125 q 2.35937,0.484375 3.71875,2.078125 1.35937,1.578125 1.35937,4 z m -5.20312,-10.484375 q 0,-0.84375 -0.28125,-1.421875 -0.28125,-0.578125 -0.90625,-0.9375 -0.73438,-0.421875 -1.78125,-0.515625 -1.04688,-0.109375 -2.59375,-0.109375 h -3.6875 v 6.71875 h 4 q 1.45312,0 2.3125,-0.140625 0.85937,-0.15625 1.59375,-0.625 0.73437,-0.46875 1.03125,-1.203125 0.3125,-0.75 0.3125,-1.765625 z m 1.98437,10.609375 q 0,-1.40625 -0.42187,-2.234375 -0.42188,-0.828125 -1.53125,-1.40625 -0.75,-0.390625 -1.82813,-0.5 -1.0625,-0.125 -2.59375,-0.125 h -4.85937 v 8.65625 h 4.09375 q 2.03125,0 3.32812,-0.203125 1.29688,-0.21875 2.125,-0.78125 0.875,-0.609375 1.28125,-1.390625 0.40625,-0.78125 0.40625,-2.015625 z" /><path
     id="path898"
     style="font-size:32px;line-height:140%;stroke:#000000;stroke-width:1.1;stroke-miterlimit:4;stroke-dasharray:none;stroke-opacity:1"
     d="m 319.72331,93.108707 h -2.92187 v -1.859375 q -0.39063,0.265625 -1.0625,0.75 -0.65625,0.46875 -1.28125,0.75 -0.73438,0.359375 -1.6875,0.59375 -0.95313,0.25 -2.23438,0.25 -2.35937,0 -4,-1.5625 -1.64062,-1.5625 -1.64062,-3.984375 0,-1.984375 0.84375,-3.203125 0.85937,-1.234375 2.4375,-1.9375 1.59375,-0.703125 3.82812,-0.953125 2.23438,-0.25 4.79688,-0.375 v -0.453125 q 0,-1 -0.35938,-1.65625 -0.34375,-0.65625 -1,-1.03125 -0.625,-0.359375 -1.5,-0.484375 -0.875,-0.125 -1.82812,-0.125 -1.15625,0 -2.57813,0.3125 -1.42187,0.296875 -2.9375,0.875 h -0.15625 v -2.984375 q 0.85938,-0.234375 2.48438,-0.515625 1.625,-0.28125 3.20312,-0.28125 1.84375,0 3.20313,0.3125 1.375,0.296875 2.375,1.03125 0.98437,0.71875 1.5,1.859375 0.51562,1.140625 0.51562,2.828125 z m -2.92187,-4.296875 v -4.859375 q -1.34375,0.07813 -3.17188,0.234375 -1.8125,0.15625 -2.875,0.453125 -1.26562,0.359375 -2.04687,1.125 -0.78125,0.75 -0.78125,2.078125 0,1.5 0.90625,2.265625 0.90625,0.75 2.76562,0.75 1.54688,0 2.82813,-0.59375 1.28125,-0.609375 2.375,-1.453125 z" /><path
     id="path900"
     style="font-size:32px;line-height:140%;stroke:#000000;stroke-width:1.1;stroke-miterlimit:4;stroke-dasharray:none;stroke-opacity:1"
     d="m 340.00456,93.108707 h -2.9375 v -9.9375 q 0,-1.203125 -0.14062,-2.25 -0.14063,-1.0625 -0.51563,-1.65625 -0.39062,-0.65625 -1.125,-0.96875 -0.73437,-0.328125 -1.90625,-0.328125 -1.20312,0 -2.51562,0.59375 -1.3125,0.59375 -2.51563,1.515625 v 13.03125 h -2.9375 V 75.655582 h 2.9375 v 1.9375 q 1.375,-1.140625 2.84375,-1.78125 1.46875,-0.640625 3.01563,-0.640625 2.82812,0 4.3125,1.703125 1.48437,1.703125 1.48437,4.90625 z" /><path
     id="path902"
     style="font-size:32px;line-height:140%;stroke:#000000;stroke-width:1.1;stroke-miterlimit:4;stroke-dasharray:none;stroke-opacity:1"
     d="m 361.50456,93.108707 h -3.875 l -7,-7.640625 -1.90625,1.8125 v 5.828125 h -2.9375 v -24.3125 h 2.9375 v 15.59375 l 8.48438,-8.734375 h 3.70312 l -8.10937,8.0625 z" /><path
     id="path904"
     style="font-size:32px;line-height:140%;stroke:#000000;stroke-width:1.1;stroke-miterlimit:4;stroke-dasharray:none;stroke-opacity:1"
     d="m 367.75456,72.733707 h -3.3125 v -3.046875 h 3.3125 z m -0.1875,20.375 h -2.9375 V 75.655582 h 2.9375 z" /><path
     id="path906"
     style="font-size:32px;line-height:140%;stroke:#000000;stroke-width:1.1;stroke-miterlimit:4;stroke-dasharray:none;stroke-opacity:1"
     d="m 388.00456,93.108707 h -2.9375 v -9.9375 q 0,-1.203125 -0.14062,-2.25 -0.14063,-1.0625 -0.51563,-1.65625 -0.39062,-0.65625 -1.125,-0.96875 -0.73437,-0.328125 -1.90625,-0.328125 -1.20312,0 -2.51562,0.59375 -1.3125,0.59375 -2.51563,1.515625 v 13.03125 h -2.9375 V 75.655582 h 2.9375 v 1.9375 q 1.375,-1.140625 2.84375,-1.78125 1.46875,-0.640625 3.01563,-0.640625 2.82812,0 4.3125,1.703125 1.48437,1.703125 1.48437,4.90625 z" /><path
     id="path908"
     style="font-size:32px;line-height:140%;stroke:#000000;stroke-width:1.1;stroke-miterlimit:4;stroke-dasharray:none;stroke-opacity:1"
     d="m 407.81706,91.124332 q 0,4.4375 -2.01562,6.515625 -2.01563,2.078125 -6.20313,2.078125 -1.39062,0 -2.71875,-0.203125 -1.3125,-0.1875 -2.59375,-0.546875 v -3 h 0.15625 q 0.71875,0.28125 2.28125,0.6875 1.5625,0.421875 3.125,0.421875 1.5,0 2.48438,-0.359375 0.98437,-0.359375 1.53125,-1 0.54687,-0.609375 0.78125,-1.46875 0.23437,-0.859375 0.23437,-1.921875 v -1.59375 q -1.32812,1.0625 -2.54687,1.59375 -1.20313,0.515625 -3.07813,0.515625 -3.125,0 -4.96875,-2.25 -1.82812,-2.265625 -1.82812,-6.375 0,-2.25 0.625,-3.875 0.64062,-1.640625 1.73437,-2.828125 1.01563,-1.109375 2.46875,-1.71875 1.45313,-0.625 2.89063,-0.625 1.51562,0 2.53125,0.3125 1.03125,0.296875 2.17187,0.921875 l 0.1875,-0.75 h 2.75 z m -2.9375,-2.8125 v -9.515625 q -1.17187,-0.53125 -2.1875,-0.75 -1,-0.234375 -2,-0.234375 -2.42187,0 -3.8125,1.625 -1.39062,1.625 -1.39062,4.71875 0,2.9375 1.03125,4.453125 1.03125,1.515625 3.42187,1.515625 1.28125,0 2.5625,-0.484375 1.29688,-0.5 2.375,-1.328125 z" /><path
     id="path910"
     style="font-size:32px;line-height:140%;stroke:#000000;stroke-width:1.1;stroke-miterlimit:4;stroke-dasharray:none;stroke-opacity:1"
     d="m 205.67644,131.26808 q 0,1.35938 -0.64063,2.6875 -0.625,1.32813 -1.76562,2.25 -1.25,1 -2.92188,1.5625 -1.65625,0.5625 -4,0.5625 -2.51562,0 -4.53125,-0.46875 -2,-0.46875 -4.07812,-1.39062 v -3.875 h 0.21875 q 1.76562,1.46875 4.07812,2.26562 2.3125,0.79688 4.34375,0.79688 2.875,0 4.46875,-1.07813 1.60938,-1.07812 1.60938,-2.875 0,-1.54687 -0.76563,-2.28125 -0.75,-0.73437 -2.29687,-1.14062 -1.17188,-0.3125 -2.54688,-0.51563 -1.35937,-0.20312 -2.89062,-0.51562 -3.09375,-0.65625 -4.59375,-2.23438 -1.48438,-1.59375 -1.48438,-4.14062 0,-2.92188 2.46875,-4.78125 2.46875,-1.875 6.26563,-1.875 2.45312,0 4.5,0.46875 2.04687,0.46875 3.625,1.15625 v 3.65625 h -0.21875 q -1.32813,-1.125 -3.5,-1.85938 -2.15625,-0.75 -4.42188,-0.75 -2.48437,0 -4,1.03125 -1.5,1.03125 -1.5,2.65625 0,1.45313 0.75,2.28125 0.75,0.82813 2.64063,1.26563 1,0.21875 2.84375,0.53125 1.84375,0.3125 3.125,0.64062 2.59375,0.6875 3.90625,2.07813 1.3125,1.39062 1.3125,3.89062 z" /><path
     id="path912"
     style="font-size:32px;line-height:140%;stroke:#000000;stroke-width:1.1;stroke-miterlimit:4;stroke-dasharray:none;stroke-opacity:1"
     d="m 223.97331,137.90871 h -2.92187 v -1.85938 q -0.39063,0.26563 -1.0625,0.75 -0.65625,0.46875 -1.28125,0.75 -0.73438,0.35938 -1.6875,0.59375 -0.95313,0.25 -2.23438,0.25 -2.35937,0 -4,-1.5625 -1.64062,-1.5625 -1.64062,-3.98437 0,-1.98438 0.84375,-3.20313 0.85937,-1.23437 2.4375,-1.9375 1.59375,-0.70312 3.82812,-0.95312 2.23438,-0.25 4.79688,-0.375 v -0.45313 q 0,-1 -0.35938,-1.65625 -0.34375,-0.65625 -1,-1.03125 -0.625,-0.35937 -1.5,-0.48437 -0.875,-0.125 -1.82812,-0.125 -1.15625,0 -2.57813,0.3125 -1.42187,0.29687 -2.9375,0.875 h -0.15625 v -2.98438 q 0.85938,-0.23437 2.48438,-0.51562 1.625,-0.28125 3.20312,-0.28125 1.84375,0 3.20313,0.3125 1.375,0.29687 2.375,1.03125 0.98437,0.71875 1.5,1.85937 0.51562,1.14063 0.51562,2.82813 z m -2.92187,-4.29688 v -4.85937 q -1.34375,0.0781 -3.17188,0.23437 -1.8125,0.15625 -2.875,0.45313 -1.26562,0.35937 -2.04687,1.125 -0.78125,0.75 -0.78125,2.07812 0,1.5 0.90625,2.26563 0.90625,0.75 2.76562,0.75 1.54688,0 2.82813,-0.59375 1.28125,-0.60938 2.375,-1.45313 z" /><path
     id="path914"
     style="font-size:32px;line-height:140%;stroke:#000000;stroke-width:1.1;stroke-miterlimit:4;stroke-dasharray:none;stroke-opacity:1"
     d="m 244.25456,137.90871 h -2.9375 v -9.9375 q 0,-1.20313 -0.14062,-2.25 -0.14063,-1.0625 -0.51563,-1.65625 -0.39062,-0.65625 -1.125,-0.96875 -0.73437,-0.32813 -1.90625,-0.32813 -1.20312,0 -2.51562,0.59375 -1.3125,0.59375 -2.51563,1.51563 v 13.03125 h -2.9375 v -17.45313 h 2.9375 v 1.9375 q 1.375,-1.14062 2.84375,-1.78125 1.46875,-0.64062 3.01563,-0.64062 2.82812,0 4.3125,1.70312 1.48437,1.70313 1.48437,4.90625 z" /><path
     id="path916"
     style="font-size:32px;line-height:140%;stroke:#000000;stroke-width:1.1;stroke-miterlimit:4;stroke-dasharray:none;stroke-opacity:1"
     d="m 264.06706,137.90871 h -2.9375 v -1.82813 q -1.26562,1.09375 -2.64062,1.70313 -1.375,0.60937 -2.98438,0.60937 -3.125,0 -4.96875,-2.40625 -1.82812,-2.40625 -1.82812,-6.67187 0,-2.21875 0.625,-3.95313 0.64062,-1.73437 1.71875,-2.95312 1.0625,-1.1875 2.46875,-1.8125 1.42187,-0.625 2.9375,-0.625 1.375,0 2.4375,0.29687 1.0625,0.28125 2.23437,0.89063 v -7.5625 h 2.9375 z m -2.9375,-4.29688 v -10.01562 q -1.1875,-0.53125 -2.125,-0.73438 -0.9375,-0.20312 -2.04687,-0.20312 -2.46875,0 -3.84375,1.71875 -1.375,1.71875 -1.375,4.875 0,3.10937 1.0625,4.73437 1.0625,1.60938 3.40625,1.60938 1.25,0 2.53125,-0.54688 1.28125,-0.5625 2.39062,-1.4375 z" /><path
     id="path918"
     style="font-size:32px;line-height:140%;stroke:#000000;stroke-width:1.1;stroke-miterlimit:4;stroke-dasharray:none;stroke-opacity:1"
     d="m 285.20769,129.04933 q 0,2.1875 -0.625,3.9375 -0.60938,1.75 -1.65625,2.9375 -1.10938,1.23438 -2.4375,1.85938 -1.32813,0.60937 -2.92188,0.60937 -1.48437,0 -2.59375,-0.35937 -1.10937,-0.34375 -2.1875,-0.9375 l -0.1875,0.8125 h -2.75 v -24.3125 h 2.9375 v 8.6875 q 1.23438,-1.01563 2.625,-1.65625 1.39063,-0.65625 3.125,-0.65625 3.09375,0 4.875,2.375 1.79688,2.375 1.79688,6.70312 z m -3.03125,0.0781 q 0,-3.125 -1.03125,-4.73438 -1.03125,-1.625 -3.32813,-1.625 -1.28125,0 -2.59375,0.5625 -1.3125,0.54688 -2.4375,1.42188 v 10 q 1.25,0.5625 2.14063,0.78125 0.90625,0.21875 2.04687,0.21875 2.4375,0 3.8125,-1.59375 1.39063,-1.60938 1.39063,-5.03125 z" /><path
     id="path920"
     style="font-size:32px;line-height:140%;stroke:#000000;stroke-width:1.1;stroke-miterlimit:4;stroke-dasharray:none;stroke-opacity:1"
     d="m 304.66081,129.18996 q 0,4.26562 -2.1875,6.73437 -2.1875,2.46875 -5.85937,2.46875 -3.70313,0 -5.89063,-2.46875 -2.17187,-2.46875 -2.17187,-6.73437 0,-4.26563 2.17187,-6.73438 2.1875,-2.48437 5.89063,-2.48437 3.67187,0 5.85937,2.48437 2.1875,2.46875 2.1875,6.73438 z m -3.03125,0 q 0,-3.39063 -1.32812,-5.03125 -1.32813,-1.65625 -3.6875,-1.65625 -2.39063,0 -3.71875,1.65625 -1.3125,1.64062 -1.3125,5.03125 0,3.28125 1.32812,4.98437 1.32813,1.6875 3.70313,1.6875 2.34375,0 3.67187,-1.67187 1.34375,-1.6875 1.34375,-5 z" /><path
     id="path922"
     style="font-size:32px;line-height:140%;stroke:#000000;stroke-width:1.1;stroke-miterlimit:4;stroke-dasharray:none;stroke-opacity:1"
     d="m 324.02019,137.90871 h -3.70313 l -4.95312,-6.70313 -4.98438,6.70313 h -3.42187 l 6.8125,-8.70313 -6.75,-8.75 h 3.70312 l 4.92188,6.59375 4.9375,-6.59375 h 3.4375 l -6.85938,8.59375 z" /></g></svg>
